<svg width="241" height="79" viewBox="0 0 241 79" fill="none" xmlns="http://www.w3.org/2000/svg">
<g id="Layer_1">
<path id="Vector" d="M38.6101 30.1502C40.0901 30.1502 41.4801 30.5102 42.7101 31.1302C49.1901 31.6502 55.1801 33.8702 60.2601 37.3402C60.1001 37.0802 59.9201 36.8202 59.6901 36.5902L41.3301 18.2302C39.8201 16.7202 37.3801 16.7202 35.8801 18.2302L17.5201 36.5902C16.7201 37.3902 16.3601 38.4602 16.4101 39.5102C21.2901 35.4102 27.2701 32.5702 33.8301 31.4902C35.2201 30.6402 36.8501 30.1402 38.6001 30.1402L38.6101 30.1502Z" fill="#9DE17D"/>
<path id="Vector_2" d="M47.78 39.3297C47.78 40.0997 47.68 40.8296 47.5 41.5496C51.42 39.4696 55.77 38.0896 60.37 37.5696C60.33 37.4996 60.3 37.4196 60.26 37.3496C55.19 33.8796 49.19 31.6596 42.71 31.1396C45.71 32.6496 47.78 35.7497 47.78 39.3297Z" fill="#70D44B"/>
<path id="Vector_3" d="M29.4399 45.39V39.32C29.4399 36.01 31.2099 33.11 33.8399 31.5C27.2699 32.58 21.2999 35.42 16.4199 39.52C16.4699 40.44 16.8299 41.35 17.5299 42.05L21.6099 46.13C22.5999 45.66 23.7099 45.39 24.8799 45.39H29.4399Z" fill="#70D44B"/>
<path id="Vector_4" d="M32.5601 48.5V53.08C32.5601 54.25 32.2901 55.36 31.8201 56.35L32.3001 56.83C33.9001 53.77 35.9301 50.97 38.3001 48.51H32.5701L32.5601 48.5Z" fill="#70D44B"/>
<path id="Vector_5" d="M60.37 37.5596C55.76 38.0796 51.42 39.4596 47.5 41.5396C46.51 45.5296 42.9 48.4996 38.61 48.4996H38.29C35.92 50.9696 33.89 53.7596 32.29 56.8196L35.88 60.4096C37.39 61.9196 39.83 61.9196 41.33 60.4096L59.69 42.0496C60.91 40.8296 61.12 39.0096 60.37 37.5596Z" fill="#71A850"/>
<path id="Vector_6" d="M44.6601 39.3303C44.6601 35.9903 41.9501 33.2803 38.6101 33.2803C35.2701 33.2803 32.5601 35.9903 32.5601 39.3303V45.3803H38.6101C41.9501 45.3803 44.6601 42.6703 44.6601 39.3303Z" fill="#70D44B"/>
<path id="Vector_7" d="M24.8801 48.5098C24.6001 48.5098 24.3301 48.5398 24.0701 48.5898C21.9401 48.9698 20.3201 50.8398 20.3201 53.0698C20.3201 55.5898 22.3701 57.6298 24.8801 57.6298C27.1201 57.6298 28.9801 56.0098 29.3601 53.8798C29.4101 53.6198 29.4401 53.3498 29.4401 53.0698V48.5098H24.8801Z" fill="#70D44B"/>
<path id="Vector_8" d="M70.6599 49.8401H73.1499C74.7999 49.8401 75.6299 50.4701 75.6299 51.7401V51.9701C75.6299 52.1401 75.6099 52.3101 75.5599 52.4701C75.5199 52.6301 75.4499 52.7801 75.3499 52.9201C75.2499 53.0601 75.1199 53.1801 74.9599 53.2801C74.7999 53.3801 74.5999 53.4701 74.3699 53.5201C74.8499 53.5901 75.2299 53.7701 75.5299 54.0601C75.8299 54.3501 75.9799 54.7601 75.9799 55.3001V55.5701C75.9799 56.2101 75.7799 56.7201 75.3699 57.0801C74.9599 57.4401 74.3299 57.6301 73.4799 57.6301H70.6599V49.8301V49.8401ZM71.4099 50.5001V53.2501H73.1699C73.7099 53.2501 74.1299 53.1601 74.4199 52.9701C74.7199 52.7801 74.8599 52.4401 74.8599 51.9501V51.7601C74.8599 51.3001 74.7199 50.9701 74.4299 50.7901C74.1499 50.6001 73.6999 50.5101 73.0799 50.5101H71.3899L71.4099 50.5001ZM71.4099 56.9701H73.4199C74.0299 56.9701 74.4899 56.8501 74.7799 56.6201C75.0699 56.3901 75.2199 56.0401 75.2199 55.5801V55.3401C75.2199 55.1001 75.1899 54.8901 75.1199 54.7101C75.0599 54.5301 74.9399 54.3801 74.7799 54.2601C74.6199 54.1401 74.4099 54.0501 74.1499 53.9801C73.8899 53.9201 73.5699 53.8901 73.1799 53.8901H71.4099V56.9701Z" fill="#7A7C7E"/>
<path id="Vector_9" d="M81.59 57.0602C81.36 57.2302 81.07 57.3802 80.73 57.5102C80.38 57.6502 79.96 57.7202 79.47 57.7202C78.69 57.7202 78.09 57.4902 77.65 57.0202C77.22 56.5502 77 55.9002 77 55.0502V54.3302C77 53.5002 77.21 52.8502 77.63 52.3902C78.05 51.9302 78.63 51.7002 79.37 51.7002C80.11 51.7002 80.72 51.9402 81.12 52.4102C81.52 52.8802 81.72 53.5302 81.72 54.3502V54.9602H77.74V55.0602C77.74 55.7102 77.9 56.2102 78.2 56.5602C78.51 56.9102 78.94 57.0902 79.48 57.0902C79.87 57.0902 80.21 57.0302 80.51 56.9202C80.81 56.8102 81.06 56.6702 81.27 56.5202L81.59 57.0802V57.0602ZM80.99 54.3302V54.2302C80.99 53.6202 80.85 53.1502 80.57 52.8202C80.29 52.5002 79.89 52.3302 79.38 52.3302C78.87 52.3302 78.46 52.5002 78.17 52.8402C77.88 53.1802 77.74 53.6402 77.74 54.2202V54.3202H80.98L80.99 54.3302Z" fill="#7A7C7E"/>
<path id="Vector_10" d="M83.25 51.8L85.06 56.81L86.83 51.8H87.59L84.56 60.04L83.93 59.81L84.68 57.72L82.49 51.79H83.25V51.8Z" fill="#7A7C7E"/>
<path id="Vector_11" d="M90.7901 51.7002C91.5801 51.7002 92.1801 51.9302 92.6201 52.3902C93.0501 52.8502 93.2701 53.5002 93.2701 54.3502V55.0702C93.2701 55.9102 93.0501 56.5702 92.6201 57.0302C92.1901 57.4902 91.5801 57.7202 90.7901 57.7202C90.0001 57.7202 89.3901 57.4902 88.9601 57.0302C88.5301 56.5702 88.3101 55.9202 88.3101 55.0702V54.3502C88.3101 53.5002 88.5301 52.8402 88.9601 52.3902C89.3901 51.9302 90.0001 51.7002 90.7901 51.7002ZM90.7901 57.0802C91.3301 57.0802 91.7501 56.9102 92.0601 56.5802C92.3701 56.2402 92.5201 55.7302 92.5201 55.0402V54.4002C92.5201 53.7102 92.3701 53.1902 92.0601 52.8602C91.7501 52.5302 91.3301 52.3602 90.7901 52.3602C90.2501 52.3602 89.8201 52.5302 89.5201 52.8602C89.2101 53.2002 89.0601 53.7102 89.0601 54.4002V55.0402C89.0601 55.7302 89.2101 56.2502 89.5201 56.5802C89.8301 56.9202 90.2501 57.0802 90.7901 57.0802Z" fill="#7A7C7E"/>
<path id="Vector_12" d="M97.24 51.7002C97.91 51.7002 98.43 51.8802 98.79 52.2502C99.15 52.6102 99.34 53.1002 99.34 53.7202V57.6502H98.61V53.9102C98.61 53.7002 98.59 53.5002 98.55 53.3202C98.51 53.1402 98.43 52.9702 98.32 52.8302C98.21 52.6902 98.06 52.5802 97.87 52.5002C97.68 52.4202 97.44 52.3802 97.15 52.3802C96.91 52.3802 96.68 52.4302 96.47 52.5202C96.26 52.6102 96.09 52.7302 95.95 52.8702C95.8 53.0102 95.69 53.1702 95.61 53.3502C95.53 53.5202 95.49 53.7002 95.49 53.8702V57.6602H94.75V51.8302H95.48V52.6402C95.54 52.5302 95.63 52.4202 95.74 52.3102C95.85 52.2002 95.98 52.1002 96.13 52.0102C96.28 51.9202 96.45 51.8502 96.64 51.8002C96.83 51.7502 97.04 51.7202 97.27 51.7202L97.24 51.7002Z" fill="#7A7C7E"/>
<path id="Vector_13" d="M104.83 56.87C104.66 57.17 104.42 57.38 104.1 57.52C103.77 57.66 103.44 57.73 103.1 57.73C102.76 57.73 102.45 57.67 102.17 57.56C101.89 57.45 101.64 57.29 101.44 57.07C101.23 56.86 101.07 56.6 100.95 56.29C100.84 55.98 100.78 55.63 100.78 55.23V54.2C100.78 53.8 100.84 53.45 100.95 53.14C101.06 52.83 101.23 52.57 101.43 52.36C101.64 52.15 101.88 51.98 102.17 51.87C102.45 51.76 102.76 51.7 103.1 51.7C103.53 51.7 103.89 51.78 104.18 51.95C104.47 52.12 104.69 52.31 104.84 52.52V49.46H105.58V57.64H104.85V56.87H104.83ZM101.5 55.12C101.5 55.75 101.65 56.23 101.94 56.57C102.24 56.91 102.63 57.08 103.12 57.08C103.36 57.08 103.58 57.05 103.79 56.99C104 56.93 104.17 56.83 104.33 56.71C104.48 56.58 104.6 56.43 104.69 56.23C104.78 56.04 104.83 55.81 104.83 55.55V53.8C104.83 53.63 104.79 53.46 104.71 53.29C104.63 53.12 104.51 52.97 104.36 52.82C104.21 52.68 104.03 52.57 103.82 52.48C103.61 52.39 103.38 52.35 103.14 52.35C102.64 52.35 102.25 52.52 101.96 52.86C101.67 53.2 101.52 53.68 101.52 54.3V55.11L101.5 55.12Z" fill="#7A7C7E"/>
<path id="Vector_14" d="M112.86 49.7197C113.41 49.7197 113.88 49.7897 114.29 49.9197C114.69 50.0497 115.06 50.2497 115.38 50.4997L114.99 51.0997C114.64 50.8497 114.3 50.6697 113.97 50.5797C113.64 50.4897 113.27 50.4397 112.86 50.4397C112.48 50.4397 112.16 50.5097 111.87 50.6397C111.59 50.7697 111.35 50.9597 111.16 51.1997C110.97 51.4397 110.83 51.7297 110.73 52.0697C110.64 52.4097 110.59 52.7797 110.59 53.1897V54.1797C110.59 56.0797 111.39 57.0397 113 57.0397C113.16 57.0397 113.32 57.0397 113.49 57.0197C113.66 57.0097 113.83 56.9797 113.99 56.9497C114.15 56.9197 114.31 56.8797 114.45 56.8197C114.59 56.7697 114.72 56.7097 114.83 56.6497V54.1797H112.99V53.5097H115.57V57.0697C115.23 57.3197 114.84 57.4897 114.41 57.5997C113.97 57.7097 113.5 57.7597 112.98 57.7597C111.91 57.7597 111.11 57.4497 110.6 56.8197C110.09 56.1897 109.83 55.3097 109.83 54.1797V53.2197C109.83 52.1097 110.09 51.2497 110.6 50.6397C111.12 50.0297 111.87 49.7297 112.86 49.7297V49.7197Z" fill="#7A7C7E"/>
<path id="Vector_15" d="M119.3 51.7002C120.09 51.7002 120.69 51.9302 121.13 52.3902C121.56 52.8502 121.78 53.5002 121.78 54.3502V55.0702C121.78 55.9102 121.56 56.5702 121.13 57.0302C120.7 57.4902 120.09 57.7202 119.3 57.7202C118.51 57.7202 117.9 57.4902 117.47 57.0302C117.04 56.5702 116.82 55.9202 116.82 55.0702V54.3502C116.82 53.5002 117.03 52.8402 117.47 52.3902C117.9 51.9302 118.51 51.7002 119.3 51.7002ZM119.3 57.0802C119.84 57.0802 120.26 56.9102 120.57 56.5802C120.88 56.2402 121.03 55.7302 121.03 55.0402V54.4002C121.03 53.7102 120.88 53.1902 120.57 52.8602C120.26 52.5302 119.84 52.3602 119.3 52.3602C118.76 52.3602 118.34 52.5302 118.03 52.8602C117.72 53.2002 117.57 53.7102 117.57 54.4002V55.0402C117.57 55.7302 117.72 56.2502 118.03 56.5802C118.34 56.9202 118.76 57.0802 119.3 57.0802Z" fill="#7A7C7E"/>
<path id="Vector_16" d="M125.39 51.7002C126.18 51.7002 126.78 51.9302 127.22 52.3902C127.65 52.8502 127.87 53.5002 127.87 54.3502V55.0702C127.87 55.9102 127.65 56.5702 127.22 57.0302C126.79 57.4902 126.18 57.7202 125.39 57.7202C124.6 57.7202 123.99 57.4902 123.56 57.0302C123.13 56.5702 122.91 55.9202 122.91 55.0702V54.3502C122.91 53.5002 123.12 52.8402 123.56 52.3902C123.99 51.9302 124.6 51.7002 125.39 51.7002ZM125.39 57.0802C125.93 57.0802 126.35 56.9102 126.66 56.5802C126.97 56.2402 127.12 55.7302 127.12 55.0402V54.4002C127.12 53.7102 126.97 53.1902 126.66 52.8602C126.35 52.5302 125.93 52.3602 125.39 52.3602C124.85 52.3602 124.42 52.5302 124.12 52.8602C123.81 53.2002 123.66 53.7102 123.66 54.4002V55.0402C123.66 55.7302 123.81 56.2502 124.12 56.5802C124.43 56.9202 124.85 57.0802 125.39 57.0802Z" fill="#7A7C7E"/>
<path id="Vector_17" d="M133.08 56.87H133.07C132.9 57.17 132.66 57.38 132.33 57.52C132.01 57.66 131.67 57.73 131.33 57.73C130.99 57.73 130.68 57.67 130.4 57.56C130.12 57.45 129.88 57.29 129.66 57.07C129.45 56.86 129.29 56.6 129.17 56.29C129.05 55.98 129 55.63 129 55.23V54.2C129 53.8 129.06 53.45 129.17 53.14C129.28 52.83 129.44 52.57 129.65 52.36C129.86 52.15 130.1 51.98 130.39 51.87C130.68 51.76 130.98 51.7 131.32 51.7C131.75 51.7 132.11 51.78 132.4 51.95C132.69 52.12 132.91 52.31 133.06 52.52V49.46H133.8V57.64H133.08V56.87ZM129.75 55.12C129.75 55.75 129.9 56.23 130.19 56.57C130.49 56.91 130.88 57.08 131.37 57.08C131.61 57.08 131.83 57.05 132.03 56.99C132.24 56.93 132.41 56.83 132.57 56.71C132.72 56.58 132.84 56.43 132.93 56.23C133.02 56.04 133.06 55.81 133.06 55.55V53.8C133.06 53.63 133.02 53.46 132.94 53.29C132.86 53.12 132.74 52.97 132.59 52.82C132.44 52.68 132.26 52.57 132.05 52.48C131.84 52.39 131.61 52.35 131.37 52.35C130.87 52.35 130.48 52.52 130.18 52.86C129.89 53.2 129.74 53.68 129.74 54.3V55.11L129.75 55.12Z" fill="#7A7C7E"/>
<path id="Vector_18" d="M138.27 57.6398V49.8398H142.9V50.5098H139.03V53.4998H142.68V54.1698H139.03V57.6398H138.27Z" fill="#7A7C7E"/>
<path id="Vector_19" d="M146.51 51.7002C147.3 51.7002 147.9 51.9302 148.34 52.3902C148.77 52.8502 148.99 53.5002 148.99 54.3502V55.0702C148.99 55.9102 148.77 56.5702 148.34 57.0302C147.91 57.4902 147.3 57.7202 146.51 57.7202C145.72 57.7202 145.11 57.4902 144.68 57.0302C144.25 56.5702 144.03 55.9202 144.03 55.0702V54.3502C144.03 53.5002 144.25 52.8402 144.68 52.3902C145.11 51.9302 145.72 51.7002 146.51 51.7002ZM146.51 57.0802C147.05 57.0802 147.47 56.9102 147.78 56.5802C148.09 56.2402 148.24 55.7302 148.24 55.0402V54.4002C148.24 53.7102 148.09 53.1902 147.78 52.8602C147.47 52.5302 147.05 52.3602 146.51 52.3602C145.97 52.3602 145.55 52.5302 145.24 52.8602C144.93 53.2002 144.78 53.7102 144.78 54.4002V55.0402C144.78 55.7302 144.93 56.2502 145.24 56.5802C145.55 56.9202 145.97 57.0802 146.51 57.0802Z" fill="#7A7C7E"/>
<path id="Vector_20" d="M152.6 51.7002C153.39 51.7002 153.99 51.9302 154.43 52.3902C154.86 52.8502 155.08 53.5002 155.08 54.3502V55.0702C155.08 55.9102 154.86 56.5702 154.43 57.0302C154 57.4902 153.39 57.7202 152.6 57.7202C151.81 57.7202 151.2 57.4902 150.77 57.0302C150.34 56.5702 150.12 55.9202 150.12 55.0702V54.3502C150.12 53.5002 150.33 52.8402 150.77 52.3902C151.2 51.9302 151.81 51.7002 152.6 51.7002ZM152.6 57.0802C153.14 57.0802 153.56 56.9102 153.87 56.5802C154.18 56.2402 154.33 55.7302 154.33 55.0402V54.4002C154.33 53.7102 154.18 53.1902 153.87 52.8602C153.56 52.5302 153.14 52.3602 152.6 52.3602C152.06 52.3602 151.63 52.5302 151.33 52.8602C151.02 53.2002 150.87 53.7102 150.87 54.4002V55.0402C150.87 55.7302 151.02 56.2502 151.33 56.5802C151.64 56.9202 152.06 57.0802 152.6 57.0802Z" fill="#7A7C7E"/>
<path id="Vector_21" d="M160.3 56.87H160.29C160.12 57.17 159.88 57.38 159.55 57.52C159.23 57.66 158.89 57.73 158.55 57.73C158.21 57.73 157.9 57.67 157.62 57.56C157.34 57.45 157.1 57.29 156.88 57.07C156.67 56.86 156.51 56.6 156.39 56.29C156.27 55.98 156.22 55.63 156.22 55.23V54.2C156.22 53.8 156.28 53.45 156.39 53.14C156.5 52.83 156.67 52.57 156.87 52.36C157.08 52.15 157.32 51.98 157.61 51.87C157.9 51.76 158.2 51.7 158.54 51.7C158.97 51.7 159.33 51.78 159.62 51.95C159.91 52.12 160.13 52.31 160.28 52.52V49.46H161.02V57.64H160.3V56.87ZM156.97 55.12C156.97 55.75 157.12 56.23 157.41 56.57C157.71 56.91 158.1 57.08 158.59 57.08C158.83 57.08 159.05 57.05 159.25 56.99C159.46 56.93 159.63 56.83 159.79 56.71C159.94 56.58 160.06 56.43 160.15 56.23C160.24 56.04 160.28 55.81 160.28 55.55V53.8C160.28 53.63 160.24 53.46 160.16 53.29C160.08 53.12 159.96 52.97 159.81 52.82C159.66 52.68 159.48 52.57 159.27 52.48C159.06 52.39 158.83 52.35 158.59 52.35C158.09 52.35 157.7 52.52 157.4 52.86C157.11 53.2 156.96 53.68 156.96 54.3V55.11L156.97 55.12Z" fill="#7A7C7E"/>
<path id="Vector_22" d="M170.18 49.8398V50.5098H166.24V53.2998H169.95V53.9698H166.24V56.9698H170.25V57.6398H165.48V49.8398H170.17H170.18Z" fill="#7A7C7E"/>
<path id="Vector_23" d="M174.16 54.6196L176.22 57.6396H175.37L173.72 55.0796L172.01 57.6396H171.2L173.28 54.6196L171.32 51.8096H172.14L173.74 54.1896L175.33 51.8096H176.13L174.17 54.6196H174.16Z" fill="#7A7C7E"/>
<path id="Vector_24" d="M178.06 56.9404V59.9504H177.33V51.8004H178.05V52.6204C178.22 52.3204 178.47 52.1004 178.78 51.9304C179.09 51.7704 179.43 51.6904 179.8 51.6904C180.15 51.6904 180.46 51.7504 180.75 51.8604C181.03 51.9704 181.28 52.1304 181.48 52.3504C181.68 52.5604 181.84 52.8204 181.95 53.1304C182.06 53.4404 182.12 53.7904 182.12 54.1904V55.2204C182.12 55.6204 182.06 55.9704 181.95 56.2804C181.83 56.5904 181.67 56.8504 181.47 57.0604C181.26 57.2704 181.02 57.4404 180.74 57.5504C180.46 57.6604 180.14 57.7204 179.81 57.7204C179.4 57.7204 179.05 57.6404 178.76 57.4904C178.47 57.3404 178.24 57.1504 178.08 56.9404H178.06ZM181.38 54.3004C181.38 53.6704 181.23 53.1904 180.94 52.8604C180.65 52.5304 180.25 52.3604 179.76 52.3604C179.56 52.3604 179.36 52.4004 179.15 52.4704C178.95 52.5404 178.77 52.6504 178.6 52.7904C178.44 52.9304 178.3 53.1004 178.21 53.3004C178.11 53.5004 178.06 53.7304 178.06 53.9904V55.7004C178.06 55.8704 178.1 56.0404 178.19 56.2004C178.27 56.3604 178.39 56.5104 178.54 56.6404C178.69 56.7704 178.87 56.8704 179.08 56.9504C179.28 57.0304 179.51 57.0704 179.77 57.0704C180.27 57.0704 180.66 56.9004 180.95 56.5604C181.24 56.2204 181.39 55.7404 181.39 55.1204V54.3104L181.38 54.3004Z" fill="#7A7C7E"/>
<path id="Vector_25" d="M187.85 57.0602C187.62 57.2302 187.33 57.3802 186.98 57.5102C186.63 57.6502 186.22 57.7202 185.73 57.7202C184.95 57.7202 184.34 57.4902 183.91 57.0202C183.48 56.5502 183.26 55.9002 183.26 55.0502V54.3302C183.26 53.5002 183.47 52.8502 183.89 52.3902C184.31 51.9302 184.89 51.7002 185.63 51.7002C186.37 51.7002 186.98 51.9402 187.38 52.4102C187.78 52.8802 187.98 53.5302 187.98 54.3502V54.9602H184V55.0602C184 55.7102 184.15 56.2102 184.46 56.5602C184.77 56.9102 185.2 57.0902 185.74 57.0902C186.13 57.0902 186.47 57.0302 186.77 56.9202C187.07 56.8102 187.32 56.6702 187.53 56.5202L187.86 57.0802L187.85 57.0602ZM187.24 54.3302V54.2302C187.24 53.6202 187.1 53.1502 186.82 52.8202C186.54 52.5002 186.14 52.3302 185.63 52.3302C185.12 52.3302 184.71 52.5002 184.42 52.8402C184.13 53.1802 183.99 53.6402 183.99 54.2202V54.3202H187.23L187.24 54.3302Z" fill="#7A7C7E"/>
<path id="Vector_26" d="M192.43 52.5602C192.23 52.4802 191.99 52.4402 191.73 52.4402C191.49 52.4402 191.28 52.4902 191.08 52.5802C190.89 52.6702 190.72 52.8002 190.58 52.9702C190.44 53.1402 190.34 53.3302 190.27 53.5702C190.2 53.8002 190.16 54.0502 190.16 54.3302V57.6402H189.42V51.8102H190.15V52.8402C190.21 52.7002 190.29 52.5702 190.39 52.4302C190.49 52.2902 190.61 52.1702 190.75 52.0602C190.89 51.9502 191.05 51.8702 191.23 51.8002C191.41 51.7402 191.61 51.7002 191.83 51.7002C192 51.7002 192.15 51.7002 192.28 51.7302C192.41 51.7502 192.54 51.7802 192.66 51.8202L192.43 52.5702V52.5602Z" fill="#7A7C7E"/>
<path id="Vector_27" d="M193.66 49.8701H194.46V50.6901H193.66V49.8701ZM193.69 51.8101H194.43V57.6401H193.69V51.8101Z" fill="#7A7C7E"/>
<path id="Vector_28" d="M200.51 57.0602C200.28 57.2302 199.99 57.3802 199.64 57.5102C199.29 57.6502 198.88 57.7202 198.39 57.7202C197.61 57.7202 197 57.4902 196.57 57.0202C196.14 56.5502 195.92 55.9002 195.92 55.0502V54.3302C195.92 53.5002 196.13 52.8502 196.55 52.3902C196.97 51.9302 197.55 51.7002 198.29 51.7002C199.03 51.7002 199.64 51.9402 200.04 52.4102C200.44 52.8802 200.64 53.5302 200.64 54.3502V54.9602H196.66V55.0602C196.66 55.7102 196.81 56.2102 197.12 56.5602C197.43 56.9102 197.86 57.0902 198.4 57.0902C198.79 57.0902 199.13 57.0302 199.43 56.9202C199.73 56.8102 199.98 56.6702 200.19 56.5202L200.52 57.0802L200.51 57.0602ZM199.9 54.3302V54.2302C199.9 53.6202 199.76 53.1502 199.48 52.8202C199.2 52.5002 198.8 52.3302 198.29 52.3302C197.78 52.3302 197.37 52.5002 197.08 52.8402C196.79 53.1802 196.65 53.6402 196.65 54.2202V54.3202H199.89L199.9 54.3302Z" fill="#7A7C7E"/>
<path id="Vector_29" d="M204.6 51.7002C205.27 51.7002 205.79 51.8802 206.15 52.2502C206.52 52.6102 206.7 53.1002 206.7 53.7202V57.6502H205.97V53.9102C205.97 53.7002 205.95 53.5002 205.91 53.3202C205.87 53.1402 205.79 52.9702 205.68 52.8302C205.57 52.6902 205.42 52.5802 205.23 52.5002C205.04 52.4202 204.8 52.3802 204.51 52.3802C204.27 52.3802 204.04 52.4302 203.83 52.5202C203.62 52.6102 203.45 52.7302 203.31 52.8702C203.16 53.0102 203.05 53.1702 202.97 53.3502C202.89 53.5202 202.85 53.7002 202.85 53.8702V57.6602H202.11V51.8302H202.84V52.6402C202.9 52.5302 202.99 52.4202 203.1 52.3102C203.21 52.2002 203.34 52.1002 203.49 52.0102C203.64 51.9202 203.81 51.8502 204 51.8002C204.19 51.7502 204.4 51.7202 204.63 51.7202L204.6 51.7002Z" fill="#7A7C7E"/>
<path id="Vector_30" d="M210.52 51.7002C210.93 51.7002 211.29 51.7502 211.6 51.8502C211.91 51.9502 212.19 52.0902 212.43 52.2802L212.1 52.8502C211.83 52.6602 211.56 52.5402 211.31 52.4702C211.06 52.4002 210.8 52.3702 210.52 52.3702C210 52.3702 209.59 52.5402 209.3 52.8802C209 53.2202 208.86 53.7002 208.86 54.3102V55.0602C208.86 55.7002 209.01 56.2002 209.31 56.5402C209.62 56.8902 210.03 57.0602 210.55 57.0602C210.95 57.0602 211.28 57.0002 211.55 56.8902C211.81 56.7802 212.05 56.6402 212.26 56.4802L212.61 57.0602C212.5 57.1402 212.38 57.2202 212.25 57.3002C212.12 57.3802 211.97 57.4502 211.81 57.5102C211.64 57.5702 211.46 57.6202 211.25 57.6602C211.04 57.7002 210.81 57.7202 210.55 57.7202C209.79 57.7202 209.19 57.4902 208.77 57.0202C208.34 56.5502 208.13 55.9002 208.13 55.0502V54.3302C208.13 53.9002 208.19 53.5302 208.31 53.2002C208.43 52.8702 208.59 52.6002 208.8 52.3802C209.01 52.1602 209.26 51.9902 209.56 51.8802C209.85 51.7602 210.18 51.7102 210.54 51.7102L210.52 51.7002Z" fill="#7A7C7E"/>
<path id="Vector_31" d="M218.04 57.0602C217.81 57.2302 217.52 57.3802 217.18 57.5102C216.83 57.6502 216.42 57.7202 215.93 57.7202C215.15 57.7202 214.54 57.4902 214.11 57.0202C213.68 56.5502 213.46 55.9002 213.46 55.0502V54.3302C213.46 53.5002 213.67 52.8502 214.09 52.3902C214.51 51.9302 215.09 51.7002 215.83 51.7002C216.57 51.7002 217.18 51.9402 217.58 52.4102C217.98 52.8802 218.18 53.5302 218.18 54.3502V54.9602H214.2V55.0602C214.2 55.7102 214.36 56.2102 214.67 56.5602C214.98 56.9102 215.41 57.0902 215.95 57.0902C216.34 57.0902 216.68 57.0302 216.98 56.9202C217.28 56.8102 217.53 56.6702 217.74 56.5202L218.06 57.0802L218.04 57.0602ZM217.43 54.3302V54.2302C217.43 53.6202 217.29 53.1502 217.01 52.8202C216.73 52.5002 216.33 52.3302 215.82 52.3302C215.31 52.3302 214.9 52.5002 214.61 52.8402C214.32 53.1802 214.18 53.6402 214.18 54.2202V54.3202H217.43V54.3302Z" fill="#7A7C7E"/>
<path id="Vector_32" d="M221.47 57.0602C221.95 57.0602 222.31 56.9702 222.55 56.7802C222.79 56.5902 222.92 56.3702 222.92 56.1202V56.0102C222.92 55.7102 222.8 55.4902 222.56 55.3402C222.32 55.1902 221.91 55.0602 221.35 54.9502C221.05 54.8902 220.79 54.8202 220.55 54.7402C220.31 54.6602 220.11 54.5602 219.95 54.4402C219.78 54.3202 219.65 54.1702 219.56 54.0002C219.47 53.8302 219.42 53.6302 219.42 53.3902V53.2402C219.42 53.0302 219.46 52.8302 219.55 52.6502C219.64 52.4602 219.77 52.3002 219.94 52.1602C220.11 52.0202 220.33 51.9102 220.59 51.8302C220.86 51.7502 221.16 51.7002 221.53 51.7002C221.97 51.7002 222.36 51.7602 222.68 51.8702C223.01 51.9802 223.29 52.1302 223.52 52.3102L223.19 52.8602C222.94 52.6902 222.69 52.5702 222.44 52.4802C222.19 52.3902 221.88 52.3502 221.5 52.3502C221.06 52.3502 220.73 52.4402 220.49 52.6202C220.26 52.8002 220.14 53.0102 220.14 53.2602V53.3802C220.14 53.6302 220.27 53.8302 220.52 53.9802C220.78 54.1202 221.13 54.2402 221.6 54.3302C222.32 54.4702 222.84 54.6602 223.16 54.9102C223.48 55.1602 223.64 55.5202 223.64 55.9902V56.1502C223.64 56.3802 223.58 56.5902 223.48 56.7902C223.37 56.9802 223.22 57.1502 223.03 57.2902C222.84 57.4302 222.61 57.5402 222.35 57.6102C222.09 57.6902 221.81 57.7202 221.49 57.7202C221.01 57.7202 220.59 57.6602 220.22 57.5302C219.85 57.4002 219.53 57.2402 219.25 57.0402L219.61 56.4602C219.88 56.6402 220.16 56.7902 220.47 56.9002C220.78 57.0102 221.1 57.0702 221.45 57.0702L221.47 57.0602Z" fill="#7A7C7E"/>
<path id="Vector_33" d="M78.1299 27.3203C80.8999 27.3203 82.9999 28.0903 84.4399 29.6303C85.8799 31.1703 86.5999 33.5403 86.5999 36.7303C86.5999 39.9203 85.8799 42.2603 84.4399 43.8003C82.9999 45.3403 80.8999 46.1103 78.1299 46.1103H71.4999C70.4599 46.1103 69.9399 45.6003 69.9399 44.5803V28.8503C69.9399 27.8303 70.4599 27.3203 71.4999 27.3203H78.1299ZM73.2299 42.4903C73.2299 42.7103 73.3499 42.8203 73.5899 42.8203H78.1299C79.9499 42.8203 81.2699 42.3403 82.0799 41.3703C82.8999 40.4103 83.2999 38.8503 83.2999 36.6903C83.2999 34.5303 82.8999 32.9803 82.0899 32.0303C81.2799 31.0703 79.9599 30.6003 78.1199 30.6003H73.5799C73.3399 30.6003 73.2199 30.7103 73.2199 30.9303V42.4803L73.2299 42.4903Z" fill="#66BC46"/>
<path id="Vector_34" d="M138.62 27.3196C139.68 27.3196 140.59 27.4696 141.35 27.7796C142.11 28.0896 142.74 28.4896 143.23 28.9996C143.72 29.5096 144.08 30.1096 144.32 30.7996C144.56 31.4896 144.67 32.1996 144.67 32.9396C144.67 33.6796 144.56 34.3496 144.35 35.0596C144.14 35.7696 143.79 36.3996 143.31 36.9496C142.83 37.5096 142.2 37.9596 141.43 38.3096C140.66 38.6596 139.73 38.8396 138.63 38.8396H132.78C132.46 38.8396 132.31 38.9996 132.31 39.3096V46.0996H129.02V38.6696C129.02 37.6096 129.25 36.8496 129.72 36.3896C130.19 35.9296 130.93 35.6896 131.97 35.6896H138.73C139.19 35.6896 139.59 35.6196 139.93 35.4696C140.27 35.3196 140.53 35.1296 140.74 34.8896C140.94 34.6496 141.1 34.3796 141.2 34.0696C141.3 33.7596 141.35 33.4396 141.35 33.1096C141.35 32.4196 141.14 31.8296 140.72 31.3396C140.3 30.8496 139.65 30.5996 138.76 30.5996H128.99V27.3096H138.62V27.3196Z" fill="#66BC46"/>
<path id="Vector_35" d="M151.04 27.3203V39.6003C151.04 40.0503 151.1 40.4703 151.22 40.8703C151.34 41.2703 151.55 41.6103 151.85 41.9003C152.15 42.1903 152.54 42.4103 153.03 42.5803C153.52 42.7503 154.14 42.8303 154.88 42.8303H162.17V46.1203H154.68C153.44 46.1203 152.37 45.9603 151.49 45.6303C150.61 45.3103 149.89 44.8603 149.33 44.2803C148.77 43.7103 148.37 43.0203 148.12 42.2303C147.87 41.4403 147.74 40.5703 147.74 39.6303V27.3203H151.03H151.04Z" fill="#66BC46"/>
<path id="Vector_36" d="M167.13 46.2802H163.51L170.11 29.5802C170.46 28.6902 170.96 28.0602 171.6 27.7002C172.24 27.3402 173.06 27.1602 174.06 27.1602C175.06 27.1602 175.86 27.3402 176.5 27.7002C177.14 28.0602 177.63 28.6902 177.96 29.5802L184.31 46.2802H180.66L174.95 31.1602C174.78 30.7302 174.48 30.5202 174.03 30.5202C173.58 30.5202 173.27 30.7302 173.08 31.1602L167.12 46.2802H167.13Z" fill="#66BC46"/>
<path id="Vector_37" d="M190.35 46.12H187.06V31.09C187.06 29.86 187.41 28.88 188.12 28.13C188.83 27.38 189.91 27 191.38 27C192.68 27 193.67 27.31 194.34 27.93C195.02 28.55 195.55 29.4 195.94 30.48L201.42 42.48C201.53 42.7 201.68 42.89 201.87 43.04C202.06 43.19 202.31 43.26 202.62 43.26C202.97 43.26 203.25 43.16 203.44 42.97C203.63 42.78 203.73 42.52 203.73 42.2V27.33H207.04V42.34C207.04 43.58 206.68 44.58 205.97 45.33C205.26 46.08 204.17 46.46 202.73 46.46C202.08 46.46 201.51 46.38 201.02 46.22C200.53 46.06 200.1 45.83 199.74 45.52C199.38 45.21 199.07 44.85 198.81 44.42C198.55 43.99 198.33 43.51 198.14 42.97L192.66 30.97C192.42 30.43 192.03 30.16 191.49 30.16C191.12 30.16 190.84 30.26 190.64 30.45C190.45 30.65 190.35 30.91 190.35 31.24V46.11V46.12Z" fill="#66BC46"/>
<path id="Vector_38" d="M224.37 27.3203V30.6103H218.89V46.1203H215.58V30.6103H210.1V27.3203H224.38H224.37Z" fill="#66BC46"/>
<path id="Vector_39" d="M105.5 46.2105H95.5099C92.2799 46.2105 89.6599 43.5905 89.6599 40.3605V33.0805C89.6599 29.8505 92.2799 27.2305 95.5099 27.2305H105.47V30.4305H95.5099C94.0499 30.4305 92.8599 31.6205 92.8599 33.0805V40.3605C92.8599 41.8205 94.0499 43.0105 95.5099 43.0105H105.5V46.2105Z" fill="#66BC46"/>
<path id="Vector_40" d="M105.33 35.1904H91.26V38.3904H105.33V35.1904Z" fill="#66BC46"/>
<path id="Vector_41" d="M124.28 46.2105H114.29C111.06 46.2105 108.44 43.5905 108.44 40.3605V33.0805C108.44 29.8505 111.06 27.2305 114.29 27.2305H124.25V30.4305H114.29C112.83 30.4305 111.64 31.6205 111.64 33.0805V40.3605C111.64 41.8205 112.83 43.0105 114.29 43.0105H124.28V46.2105Z" fill="#66BC46"/>
<path id="Vector_42" d="M124.11 35.1904H110.04V38.3904H124.11V35.1904Z" fill="#66BC46"/>
</g>
</svg>
