<svg width="222" height="58" viewBox="0 0 222 58" fill="none" xmlns="http://www.w3.org/2000/svg">
<g id="Group 257">
<path id="Ellipse 550" d="M47.4202 30.7099C46.0749 33.1508 43.8854 35.0171 41.2623 35.9587C38.6391 36.9003 35.7625 36.8526 33.172 35.8246C30.5815 34.7965 28.4551 32.8587 27.1915 30.3746C25.9278 27.8905 25.6139 25.0307 26.3085 22.3316C27.003 19.6325 28.6584 17.2795 30.9642 15.7139C33.2699 14.1483 36.0676 13.4777 38.8326 13.8278C41.5975 14.1779 44.1398 15.5246 45.9826 17.6155C47.8254 19.7064 48.8421 22.3977 48.842 25.1847L43.6976 25.1846C43.6976 23.6501 43.1378 22.1682 42.1232 21.017C41.1085 19.8658 39.7087 19.1242 38.1864 18.9315C36.664 18.7387 35.1236 19.108 33.854 19.97C32.5845 20.832 31.673 22.1276 31.2906 23.6137C30.9082 25.0998 31.081 26.6744 31.7768 28.0422C32.4725 29.4099 33.6433 30.4769 35.0697 31.0429C36.496 31.609 38.0798 31.6352 39.5241 31.1168C40.9684 30.5983 42.174 29.5707 42.9147 28.2268L47.4202 30.7099Z" fill="#38C55F"/>
<path id="Ellipse 551" d="M73.3674 30.7099C72.0222 33.1508 69.8327 35.0171 67.2095 35.9587C64.5864 36.9003 61.7098 36.8526 59.1193 35.8246C56.5288 34.7965 54.4023 32.8587 53.1387 30.3746C51.8751 27.8905 51.5611 25.0307 52.2557 22.3316C52.9503 19.6325 54.6057 17.2795 56.9114 15.7139C59.2172 14.1483 62.0149 13.4777 64.7798 13.8278C67.5448 14.1779 70.0871 15.5246 71.9298 17.6155C73.7726 19.7064 74.7893 22.3977 74.7893 25.1847L69.6448 25.1846C69.6449 23.6501 69.0851 22.1682 68.0704 21.017C67.0558 19.8658 65.656 19.1242 64.1336 18.9315C62.6112 18.7387 61.0708 19.108 59.8013 19.97C58.5317 20.832 57.6203 22.1276 57.2378 23.6137C56.8554 25.0998 57.0283 26.6744 57.724 28.0422C58.4198 29.4099 59.5906 30.4769 61.0169 31.0429C62.4433 31.609 64.0271 31.6352 65.4714 31.1168C66.9157 30.5983 68.1213 29.5707 68.862 28.2268L73.3674 30.7099Z" fill="#38C55F"/>
<path id="Ellipse 552" d="M125.158 25.1845C125.158 18.8623 120.033 13.7371 113.711 13.7371C107.388 13.7371 102.263 18.8623 102.263 25.1845C102.263 31.5067 107.388 36.6318 113.711 36.6318C120.033 36.6318 125.158 31.5067 125.158 25.1845ZM107.408 25.1845C107.408 21.7037 110.23 18.882 113.711 18.882C117.191 18.882 120.013 21.7037 120.013 25.1845C120.013 28.6652 117.191 31.4869 113.711 31.4869C110.23 31.4869 107.408 28.6652 107.408 25.1845Z" fill="#38C55F"/>
<path id="Ellipse 553" d="M24.4211 25.1845C24.4211 18.8623 18.9542 13.7371 12.2105 13.7371C5.46684 13.7371 0 18.8623 0 25.1845C0 31.5067 5.46684 36.6318 12.2105 36.6318C18.9542 36.6318 24.4211 31.5067 24.4211 25.1845ZM5.48793 25.1845C5.48793 21.7037 8.49774 18.882 12.2105 18.882C15.9233 18.882 18.9331 21.7037 18.9331 25.1845C18.9331 28.6652 15.9233 31.4869 12.2105 31.4869C8.49774 31.4869 5.48793 28.6652 5.48793 25.1845Z" fill="#38C55F"/>
<path id="Ellipse 554" d="M76.3158 25.1847C76.3158 31.5069 81.7826 36.632 88.5263 36.632C95.27 36.632 100.737 31.5069 100.737 25.1847C100.737 18.8625 95.27 13.7373 88.5263 13.7373C81.7826 13.7373 76.3158 18.8625 76.3158 25.1847ZM95.2489 25.1847C95.2489 28.6654 92.2391 31.4871 88.5263 31.4871C84.8135 31.4871 81.8037 28.6654 81.8037 25.1847C81.8037 21.7039 84.8135 18.8822 88.5263 18.8822C92.2391 18.8822 95.2489 21.7039 95.2489 25.1847Z" fill="#38C55F"/>
<circle id="Ellipse 555" cx="3.81579" cy="3.81579" r="3.81579" transform="matrix(1 0 0 -1 155 7.63184)" fill="#9D8DFF"/>
<ellipse id="Ellipse 556" cx="3.815" cy="3.81579" rx="3.815" ry="3.81579" transform="matrix(1 0 0 -1 175 7.63184)" fill="#9D8DFF" fill-opacity="0.6"/>
<ellipse id="Ellipse 557" cx="3.815" cy="3.81579" rx="3.815" ry="3.81579" transform="matrix(1 0 0 -1 201 7.63184)" fill="#9D8DFF" fill-opacity="0.3"/>
<circle id="Ellipse 558" cx="3.81579" cy="3.81579" r="3.81579" transform="matrix(1 0 0 -1 135.5 7.63184)" fill="#9D8DFF" fill-opacity="0.6"/>
<circle id="Ellipse 559" cx="3.81579" cy="3.81579" r="3.81579" transform="matrix(1 0 0 -1 109.895 7.63184)" fill="#9D8DFF" fill-opacity="0.3"/>
<path id="Ellipse 560" d="M151.105 25.1845C151.105 18.8623 145.98 13.7371 139.658 13.7371C133.336 13.7371 128.21 18.8623 128.21 25.1845C128.21 31.5067 133.336 36.6318 139.658 36.6318C145.98 36.6318 151.105 31.5067 151.105 25.1845ZM133.355 25.1845C133.355 21.7037 136.177 18.882 139.658 18.882C143.139 18.882 145.96 21.7037 145.96 25.1845C145.96 28.6652 143.139 31.4869 139.658 31.4869C136.177 31.4869 133.355 28.6652 133.355 25.1845Z" fill="#38C55F"/>
<path id="Ellipse 561" d="M215.211 25.1845C215.211 18.8623 210.085 13.7371 203.763 13.7371C197.441 13.7371 192.316 18.8623 192.316 25.1845C192.316 31.5067 197.441 36.6318 203.763 36.6318C210.085 36.6318 215.211 31.5067 215.211 25.1845ZM197.461 25.1845C197.461 21.7037 200.283 18.882 203.763 18.882C207.244 18.882 210.066 21.7037 210.066 25.1845C210.066 28.6652 207.244 31.4869 203.763 31.4869C200.283 31.4869 197.461 28.6652 197.461 25.1845Z" fill="#38C55F"/>
<path id="Ellipse 562" d="M135.421 44.7141C134.355 44.8 133.284 44.6361 132.293 44.2354C131.302 43.8346 130.419 43.2081 129.712 42.4056C129.006 41.6032 128.497 40.647 128.225 39.6131C127.954 38.5792 127.927 37.4962 128.148 36.4503C128.369 35.4043 128.83 34.4243 129.496 33.5883C130.162 32.7522 131.014 32.0831 131.985 31.6343C132.955 31.1854 134.016 30.9692 135.085 31.0029C136.153 31.0365 137.199 31.3191 138.139 31.8281L136.007 35.7652C135.68 35.588 135.316 35.4897 134.944 35.478C134.572 35.4662 134.202 35.5415 133.864 35.6978C133.527 35.854 133.23 36.0869 132.998 36.378C132.766 36.6691 132.606 37.0103 132.529 37.3744C132.452 37.7385 132.461 38.1155 132.556 38.4755C132.65 38.8354 132.828 39.1683 133.073 39.4476C133.319 39.727 133.627 39.9451 133.972 40.0846C134.317 40.2242 134.69 40.2812 135.061 40.2513L135.421 44.7141Z" fill="#38C55F"/>
<path id="Ellipse 563" d="M199.421 44.7141C198.355 44.8 197.284 44.6361 196.293 44.2354C195.302 43.8346 194.419 43.2081 193.712 42.4056C193.006 41.6032 192.497 40.647 192.225 39.6131C191.954 38.5792 191.927 37.4962 192.148 36.4503C192.369 35.4043 192.83 34.4243 193.496 33.5883C194.162 32.7522 195.014 32.0831 195.985 31.6343C196.955 31.1854 198.016 30.9692 199.085 31.0029C200.153 31.0365 201.199 31.3191 202.139 31.8281L200.007 35.7652C199.68 35.588 199.316 35.4897 198.944 35.478C198.572 35.4662 198.202 35.5415 197.864 35.6978C197.527 35.854 197.23 36.0869 196.998 36.378C196.766 36.6691 196.606 37.0103 196.529 37.3744C196.452 37.7385 196.461 38.1155 196.556 38.4755C196.65 38.8354 196.828 39.1683 197.073 39.4476C197.319 39.727 197.627 39.9451 197.972 40.0846C198.317 40.2242 198.69 40.2812 199.061 40.2513L199.421 44.7141Z" fill="#38C55F"/>
<path id="Ellipse 564" d="M142.264 17.5272C142.404 16.4372 142.8 15.3959 143.42 14.4887C144.04 13.5816 144.866 12.8345 145.831 12.3089C146.796 11.7833 147.872 11.4942 148.971 11.4654C150.069 11.4366 151.159 11.6688 152.15 12.143L150.113 16.4002C149.796 16.2482 149.447 16.1738 149.095 16.183C148.743 16.1923 148.398 16.2849 148.088 16.4533C147.779 16.6218 147.514 16.8612 147.316 17.1519C147.117 17.4426 146.99 17.7763 146.945 18.1256L142.264 17.5272Z" fill="#38C55F"/>
<path id="Ellipse 565" d="M205.922 17.5272C206.062 16.4372 206.458 15.3959 207.078 14.4887C207.698 13.5816 208.524 12.8345 209.489 12.3089C210.454 11.7833 211.53 11.4942 212.629 11.4654C213.727 11.4366 214.817 11.6688 215.808 12.143L213.772 16.4002C213.454 16.2482 213.105 16.1738 212.753 16.183C212.401 16.1923 212.056 16.2849 211.747 16.4533C211.437 16.6218 211.173 16.8612 210.974 17.1519C210.775 17.4426 210.648 17.7763 210.604 18.1256L205.922 17.5272Z" fill="#38C55F"/>
<path id="Rectangle 12621" d="M27 23H46.85C47.9546 23 48.85 23.8954 48.85 25V27H27V23Z" fill="#38C55F"/>
<path id="Rectangle 12622" d="M54 23H72.8C73.9046 23 74.8 23.8954 74.8 25V27H54V23Z" fill="#38C55F"/>
<path id="Rectangle 12623" d="M120.579 24.4209H125.158V36.6314H120.579V24.4209Z" fill="#38C55F"/>
<path id="Rectangle 12624" d="M19 1.52637H25V36.6316H19V1.52637Z" fill="#38C55F"/>
<path id="Rectangle 12625" d="M81.7998 48.8418H75.7998V13.7365H81.7998V48.8418Z" fill="#38C55F"/>
<path id="Union" fill-rule="evenodd" clip-rule="evenodd" d="M166.113 13.374H171.321V15.282C171.865 14.9238 172.44 14.6113 173.039 14.3484C174.49 13.7124 176.055 13.3809 177.639 13.3742C179.223 13.3676 180.791 13.6861 182.246 14.3099C183.702 14.9337 185.014 15.8496 186.102 17.0009C187.189 18.1523 188.029 19.5145 188.569 21.0034C189.108 22.4922 189.359 23.7578 189.262 25.3385H189.261V36.5229H184.053V25.3385H184.048C184.05 25.3059 184.051 25.2732 184.053 25.2406V24.9485H184.06C184.06 24.2088 183.931 23.4738 183.678 22.7765C183.381 21.9568 182.919 21.2068 182.32 20.573C181.721 19.9391 180.999 19.4348 180.197 19.0914C179.396 18.7479 178.533 18.5726 177.661 18.5763C176.789 18.5799 175.927 18.7624 175.128 19.1126C174.33 19.4627 173.612 19.973 173.018 20.6119C172.425 21.2507 171.969 22.0045 171.679 22.8267C171.469 23.4188 171.349 24.0373 171.321 24.662V25.2352C171.324 25.2874 171.327 25.3395 171.33 25.3917L171.321 25.3923V36.5229H166.113V24.9486V13.374Z" fill="#38C55F"/>
<path id="Rectangle 12626" d="M155.684 13.7373H161.789V36.632H155.684V13.7373Z" fill="#38C55F"/>
<path id="Rectangle 12611 (Stroke)" fill-rule="evenodd" clip-rule="evenodd" d="M144.35 45.1793H134.965C133.136 45.1793 131.653 46.8194 131.653 48.8425C131.653 50.8656 133.136 52.5056 134.965 52.5056H144.35C146.18 52.5056 147.663 50.8656 147.663 48.8425C147.663 46.8194 146.18 45.1793 144.35 45.1793ZM134.965 39.6846C130.392 39.6846 126.684 43.7847 126.684 48.8425C126.684 53.9002 130.392 58.0004 134.965 58.0004H144.35C148.924 58.0004 152.631 53.9002 152.631 48.8425C152.631 43.7847 148.924 39.6846 144.35 39.6846H134.965Z" fill="#38C55F"/>
<path id="Rectangle 12612 (Stroke)" fill-rule="evenodd" clip-rule="evenodd" d="M207.969 45.1793H198.031C196.094 45.1793 194.524 46.8194 194.524 48.8425C194.524 50.8656 196.094 52.5056 198.031 52.5056H207.969C209.906 52.5056 211.476 50.8656 211.476 48.8425C211.476 46.8194 209.906 45.1793 207.969 45.1793ZM198.031 39.6846C193.189 39.6846 189.263 43.7847 189.263 48.8425C189.263 53.9002 193.189 58.0004 198.031 58.0004H207.969C212.811 58.0004 216.737 53.9002 216.737 48.8425C216.737 43.7847 212.811 39.6846 207.969 39.6846H198.031Z" fill="#38C55F"/>
</g>
</svg>
